<?xml version="1.0" encoding="utf-8"?>
<!-- Generator: Adobe Illustrator 17.0.0, SVG Export Plug-In . SVG Version: 6.00 Build 0)  -->
<!DOCTYPE svg PUBLIC "-//W3C//DTD SVG 1.1//EN" "http://www.w3.org/Graphics/SVG/1.1/DTD/svg11.dtd">
<svg version="1.1" id="Layer_1" xmlns="http://www.w3.org/2000/svg" xmlns:xlink="http://www.w3.org/1999/xlink" x="0px" y="0px"
	 width="960px" height="600px" viewBox="0 0 960 600" enable-background="new 0 0 960 600" xml:space="preserve">
<g id="Layer_2">
	<g>
		<path fill="none" d="M482,593"/>
		<path fill="none" d="M482,149"/>
		<path d="M683.667,131.333C585,200.667,536,207,536,207l-2.5-63c-3.5,9-15.5,19-15.5,19c-20.708-14.871-36-13-36-13
			s-15.716-1.81-36,13c0,0-12-10-15.5-19l-2.5,63c0,0-49-6.333-147.667-75.667C280.333,131.333,108,234,9,515
			c0,0,79.61-53.579,127.608,0c0,0,26.392-29.667,86.392-19.667s59.333,69.333,59.333,69.333S343.667,496,482,592.667
			c138.333-96.667,199.667-28,199.667-28S681,505.333,741,495.333S827.392,515,827.392,515C875.39,461.421,955,515,955,515
			C856,234,683.667,131.333,683.667,131.333z"/>
	</g>
</g>
<g id="Layer_3">
	<path fill="none" stroke="#FFFFFF" stroke-width="4" stroke-linecap="round" stroke-miterlimit="10" d="M285,154c0,0-2,316,4,384"
		/>
	<path fill="none" stroke="#FFFFFF" stroke-width="4" stroke-linecap="round" stroke-miterlimit="10" d="M679,154c0,0,6,313-4,383"
		/>
	<path fill="none" stroke="#FFFFFF" stroke-width="4" stroke-linecap="round" stroke-miterlimit="10" d="M662,164c0,0-66,51-135,205
		"/>
	<path fill="none" stroke="#FFFFFF" stroke-width="4" stroke-linecap="round" stroke-miterlimit="10" d="M299,164c0,0,84,76,137,205
		"/>
	<path fill="none" stroke="#FFFFFF" stroke-width="4" stroke-linecap="round" stroke-miterlimit="10" d="M271,169
		c0,0-131.194,79.277-136.097,330.138"/>
	<path fill="none" stroke="#FFFFFF" stroke-width="4" stroke-linecap="round" stroke-miterlimit="10" d="M692,169
		c0,0,137.073,103.206,134.073,330.138"/>
	<path fill="none" stroke="#FFFFFF" stroke-width="12" stroke-linecap="round" stroke-miterlimit="10" d="M450,179
		c0,0,31.283-38.333,65.333,1"/>
	<path fill="#FFFFFF" d="M439,247l4.5,26.923l22,22.077h36l17.5-23.438l3-28.101l-29.667,9.872l-11.333-19l-0.5,22
		C480.5,257.333,444.998,244.617,439,247z"/>
	<path fill="#FFFFFF" d="M458.167,238.602C454.216,236.899,446,226.783,446,226.783l19.127,11.819
		C465.127,238.602,464,241.117,458.167,238.602z"/>
	<path fill="#FFFFFF" d="M497,238.602l19.127-11.819c0,0-8.216,10.116-12.167,11.819C498.127,241.117,497,238.602,497,238.602z"/>
</g>
<g id="Layer_4">
	<path fill="none" stroke="#000000" stroke-width="4" stroke-linecap="round" stroke-miterlimit="10" d="M524,255.5
		c0,0-10.75,4.75-18.5,25.75"/>
	<path fill="none" stroke="#000000" stroke-width="4" stroke-linecap="round" stroke-miterlimit="10" d="M439.5,254.5
		c0,0,10.75,4.75,18.5,25.75"/>
	
		<line fill="none" stroke="#000000" stroke-width="6" stroke-linecap="round" stroke-miterlimit="10" x1="466" y1="274" x2="497" y2="274"/>
	<path fill="none" stroke="#000000" stroke-width="4" stroke-linecap="round" stroke-miterlimit="10" d="M471,282.25
		c0,0,11,6.583,22,0"/>
	<path d="M466,252.25c0,0,13.5,7.917,14.5,9.417c0,0,7.293-5.077,9.043-5.167s-5.04-0.557-9.043,0.5L466,252.25z"/>
</g>
</svg>
