<?xml version="1.0" encoding="utf-8"?>
<!-- Generator: Adobe Illustrator 17.0.0, SVG Export Plug-In . SVG Version: 6.00 Build 0)  -->
<!DOCTYPE svg PUBLIC "-//W3C//DTD SVG 1.1//EN" "http://www.w3.org/Graphics/SVG/1.1/DTD/svg11.dtd">
<svg version="1.1" id="Layer_1" xmlns="http://www.w3.org/2000/svg" xmlns:xlink="http://www.w3.org/1999/xlink" x="0px" y="0px"
	 width="960px" height="600px" viewBox="0 0 960 600" enable-background="new 0 0 960 600" xml:space="preserve">
<g id="Layer_2">
	<path d="M836.643,251.19C763.147,105.698,612.585,81.903,612.585,81.903c73.333,68.472,66,140.194-4,146.194s-80-45.333-80-45.333
		L517.918,81.903l-15.375,40.194c-3.785-4.416-20.543-5.25-22.543-5.327v-0.007c0,0,0.05,0.001,0,0.003c-0.05-0.002,0-0.003,0-0.003
		v0.007c-2,0.077-18.756,0.91-22.541,5.327l-15.354-40.194l-10.677,100.861c0,0-10.005,51.333-80.005,45.333
		s-77.336-77.722-4.003-146.194c0,0-150.563,23.795-224.06,169.287s88.724,250.907,88.724,250.907s-58.722-66.52-15.334-137
		c45-73.097,120,51,132,95c0,0,14-69,44-74c29.576-4.929,71.785,56.236,106.509,199.775l-0.009,6.225
		c0.249-1.053,0.5-2.086,0.75-3.131c0.25,1.044,0.501,2.078,0.75,3.131l-0.009-6.225c34.724-143.539,76.934-204.704,106.509-199.775
		c30,5,44,74,44,74c12-44,87-168.097,132-95c43.389,70.48-15.333,137-15.333,137S910.139,396.683,836.643,251.19z"/>
</g>
</svg>
