<?xml version="1.0" encoding="utf-8"?>
<!-- Generator: Adobe Illustrator 17.0.0, SVG Export Plug-In . SVG Version: 6.00 Build 0)  -->
<!DOCTYPE svg PUBLIC "-//W3C//DTD SVG 1.1//EN" "http://www.w3.org/Graphics/SVG/1.1/DTD/svg11.dtd">
<svg version="1.1" id="Layer_1" xmlns="http://www.w3.org/2000/svg" xmlns:xlink="http://www.w3.org/1999/xlink" x="0px" y="0px"
	 width="960px" height="600px" viewBox="0 0 960 600" enable-background="new 0 0 960 600" xml:space="preserve">
<g id="Layer_2">
	<path d="M690.041,148c-79-86-155-91-155-91c62,22,113,73,129,119s35.667,116.333-47,131.667c-82.667,15.333-102-9.333-106-17.333
		s-11-76.333-11-76.333l-9,62H479h-12l-9-62c0,0-7,68.333-11,76.333S423.667,323,341,307.667C258.333,292.333,278,222,294,176
		s67-97,129-119c0,0-76,5-155,91s-65,181.031-65,181.031S200,418,258,492s126,96,161,102c0,0-59-31-103-95s-28-127,13-139
		s73-2,100,26s50,117,50,161c0-44,23.021-133,50.021-161s59.021-38,100.021-26s57,75,13,139s-103,95-103,95c35-6,103-28,161-102
		s55-162.969,55-162.969S769.041,234,690.041,148z"/>
</g>
</svg>
