<?xml version="1.0" encoding="utf-8"?>
<!-- Generator: Adobe Illustrator 17.0.0, SVG Export Plug-In . SVG Version: 6.00 Build 0)  -->
<!DOCTYPE svg PUBLIC "-//W3C//DTD SVG 1.1//EN" "http://www.w3.org/Graphics/SVG/1.1/DTD/svg11.dtd">
<svg version="1.1" id="Layer_1" xmlns="http://www.w3.org/2000/svg" xmlns:xlink="http://www.w3.org/1999/xlink" x="0px" y="0px"
	 width="960px" height="600px" viewBox="0 0 960 600" enable-background="new 0 0 960 600" xml:space="preserve">
<g id="Layer_2">
	<path d="M796.786,185C679.453,71,575.118,79.592,575.118,79.592c21,5.592,86.496,45.908,100.996,85.525
		S649.607,242.5,599.107,249.5s-70.015-20-72.015-31.5s-14.03-138.408-14.03-138.408L499.501,121c-1.5-1.5-19.621-2.5-19.621-2.5
		s-18,1-19.5,2.5l-13.5-41.408c0,0-12,126.908-14,138.408s-21.5,38.5-72,31.5s-91.5-44.766-77-84.383s80-79.933,101-85.525
		c0,0-104.333-8.592-221.667,105.408S52.88,501,326.88,582c0,0-101-100-105-149s91-50,172,63c0,0-25.975-50.985,8-74
		c31-21,78,60,78,169c0-109,47.121-190,78.121-169c33.975,23.015,8.121,74,8.121,74c81-113,176-112,172-63s-105,149-105,149
		C907.121,501,914.12,299,796.786,185z"/>
</g>
</svg>
