<?xml version="1.0" encoding="utf-8"?>
<!-- Generator: Adobe Illustrator 17.0.0, SVG Export Plug-In . SVG Version: 6.00 Build 0)  -->
<!DOCTYPE svg PUBLIC "-//W3C//DTD SVG 1.1//EN" "http://www.w3.org/Graphics/SVG/1.1/DTD/svg11.dtd">
<svg version="1.1" id="Layer_1" xmlns="http://www.w3.org/2000/svg" xmlns:xlink="http://www.w3.org/1999/xlink" x="0px" y="0px"
	 width="960px" height="600px" viewBox="0 0 960 600" enable-background="new 0 0 960 600" xml:space="preserve">
<g id="Layer_2">
	<path d="M480.17,582.076c0,0,13.406-133.493,88.402-133.493s92.99,79.496,92.99,79.496c6-11.999,52.487-107.995,106.484-107.995
		s110.077,113.994,110.077,113.994C817.23,219.094,743.087,94.601,743.087,94.601C650.42,213.535,544,210,544,210V97.667
		l-19.83,73.25c-16.786-17.431-42.477-14.934-44.083-14.759c-1.612-0.175-27.384-2.672-44.17,14.759L416,97.667V210
		c0,0-106.333,3.535-199-115.399c0,0-74.101,124.494-134.994,439.478c0,0,56.101-113.994,110.098-113.994
		S292.6,516.08,298.6,528.079c0,0,17.999-79.496,92.995-79.496S480,582.076,480,582.076"/>
</g>
</svg>
