<?xml version="1.0" encoding="utf-8"?>
<!-- Generator: Adobe Illustrator 17.0.0, SVG Export Plug-In . SVG Version: 6.00 Build 0)  -->
<!DOCTYPE svg PUBLIC "-//W3C//DTD SVG 1.1//EN" "http://www.w3.org/Graphics/SVG/1.1/DTD/svg11.dtd">
<svg version="1.1" id="Layer_1" xmlns="http://www.w3.org/2000/svg" xmlns:xlink="http://www.w3.org/1999/xlink" x="0px" y="0px"
	 width="960px" height="600px" viewBox="0 0 960 600" enable-background="new 0 0 960 600" xml:space="preserve">
<g id="Layer_2">
	<path d="M772.36,288c-63-44-138.051-50-138.051-50c71,65,0.897,95-50.103,95S525,306,525,306v-82.827L504.411,259H480h-24
		l-21-35.827V306c0,0-8,27-59,27s-121-30-50-95c0,0-75,6-138,50S11,426,253,526c0,0-22.667-16.333-22-33.667
		s29.333-39.333,51.333-40s58.667,20.667,69.333,36c0,0,16-32,41.333-32s87,53.333,87,90.667c0-37.333,61.871-90.667,87.204-90.667
		s41.537,32,41.537,32c10.667-15.333,47.33-36.667,69.33-36s50.66,22.667,51.327,40C730.065,509.667,707.386,526,707.386,526
		C949.386,426,835.36,332,772.36,288z"/>
</g>
<g id="Layer_3">
	<path fill="#1E1E1E" d="M786.279,267c-59,108-168.685,100.667-214.685,102s-65.37-24.667-68.037-44s-18.741-29.333-18.741-29.333
		l-5.815-18l-5.167,18c0,0-15.75,10-18.417,29.333s-21.875,45.333-67.875,44s-155.604,6-214.604-102c0,0-140.156,52-140.156,140
		s147.203,156.995,190.203,161.997c0,0-175.992-72-99.992-150.999S340.996,392,366.996,402s106.002,63,105.002,99l1.251,49.5
		L479,551l6.398-0.5l1.898-49.5c-1-36,78.999-89,104.999-99s167.999-63,243.999,15.999S736.293,568.997,736.293,568.997
		c43-5.003,190.182-73.997,190.182-161.997S786.279,267,786.279,267z"/>
</g>
</svg>
