<?xml version="1.0" encoding="utf-8"?>
<!-- Generator: Adobe Illustrator 17.0.0, SVG Export Plug-In . SVG Version: 6.00 Build 0)  -->
<!DOCTYPE svg PUBLIC "-//W3C//DTD SVG 1.1//EN" "http://www.w3.org/Graphics/SVG/1.1/DTD/svg11.dtd">
<svg version="1.1" id="Layer_1" xmlns="http://www.w3.org/2000/svg" xmlns:xlink="http://www.w3.org/1999/xlink" x="0px" y="0px"
	 width="960px" height="600px" viewBox="0 0 960 600" enable-background="new 0 0 960 600" xml:space="preserve">
<g id="Layer_2">
	<path d="M849.76,281c-79-73-192.667-101.333-192.667-101.333C730.427,295.667,600.427,343,560.427,287s-30-127.333-30-127.333
		c-16,10-29.667,47.333-29.667,47.333h-20.52h-21c0,0-13.667-37.333-29.667-47.333c0,0,10,71.333-30,127.333
		s-170,8.667-96.667-107.333c0,0-113.667,28.333-192.667,101.333s-73,228,123,279c0,0-40-59-14-87s101-2,116,28c0,0,15-38,44-38
		s69,35,101,104c32-69,71.76-104,100.76-104s43.76,38,43.76,38c15-30,90-56,116-28s-14,87-14,87C922.76,509,928.76,354,849.76,281z"
		/>
</g>
</svg>
