<?xml version="1.0" encoding="utf-8"?>
<!-- Generator: Adobe Illustrator 17.0.0, SVG Export Plug-In . SVG Version: 6.00 Build 0)  -->
<!DOCTYPE svg PUBLIC "-//W3C//DTD SVG 1.1//EN" "http://www.w3.org/Graphics/SVG/1.1/DTD/svg11.dtd">
<svg version="1.1" id="Layer_1" xmlns="http://www.w3.org/2000/svg" xmlns:xlink="http://www.w3.org/1999/xlink" x="0px" y="0px"
	 width="960px" height="600px" viewBox="0 0 960 600" enable-background="new 0 0 960 600" xml:space="preserve">
<g id="Layer_2">
	<path d="M868.993,360c0-55-102.559-236-102.559-236l12.986,86c-163,52-229.028,10-229.028,10l-21.056-102.429L509.224,185L480,166
		l-29,19l-20-67.429L410,220c0,0-66,42-229-10l13-86c0,0-102.552,181-102.552,236c0,0,7.552,104,113.552,224c0,0-32-80-30-94
		s59-23,90-15s51,44,53,58c0,0,18-51,70-54s92,92.204,92,110.602C480,571.204,520.224,476,572.224,479s70.224,54,70.224,54
		c2-14,22-50,53-58s87.999,1,89.999,15s-30.002,94-30.002,94C861.444,464,868.993,360,868.993,360z"/>
</g>
</svg>
