<?xml version="1.0" encoding="utf-8"?>
<!-- Generator: Adobe Illustrator 17.0.0, SVG Export Plug-In . SVG Version: 6.00 Build 0)  -->
<!DOCTYPE svg PUBLIC "-//W3C//DTD SVG 1.1//EN" "http://www.w3.org/Graphics/SVG/1.1/DTD/svg11.dtd">
<svg version="1.1" id="Layer_1" xmlns="http://www.w3.org/2000/svg" xmlns:xlink="http://www.w3.org/1999/xlink" x="0px" y="0px"
	 width="960px" height="600px" viewBox="0 0 960 600" enable-background="new 0 0 960 600" xml:space="preserve">
<g id="Layer_2">
	<path d="M664.765,185c-36,80-100.633,185-124.633,175s-17.266-134.333-17.266-134.333c-11.333,41.333-43.865,63-43.865,63
		s-32.667-21.667-44-63c0,0,6.667,124.333-17.333,134.333S329,265,293,185L50.731,98.104C50.731,98.104,195,215,213,368
		c0,0,161,1.801,266,218.9C584,369.801,744.874,368,744.874,368c18-153,162.143-269.896,162.143-269.896L664.765,185z"/>
</g>
</svg>
