<?xml version="1.0" encoding="utf-8"?>
<!-- Generator: Adobe Illustrator 17.0.0, SVG Export Plug-In . SVG Version: 6.00 Build 0)  -->
<!DOCTYPE svg PUBLIC "-//W3C//DTD SVG 1.1//EN" "http://www.w3.org/Graphics/SVG/1.1/DTD/svg11.dtd">
<svg version="1.1" id="Layer_1" xmlns="http://www.w3.org/2000/svg" xmlns:xlink="http://www.w3.org/1999/xlink" x="0px" y="0px"
	 width="960px" height="600px" viewBox="0 0 960 600" enable-background="new 0 0 960 600" xml:space="preserve">
<g id="Layer_2">
	<path d="M721.667,252.333c-102,62.667-187.333,64-187.333,64L509,211.612L492.333,275L480,272.333L467.667,275L451,211.612
		l-25.333,104.721c0,0-85.333-1.333-187.333-64L37,426l161-42c0,0,53,45,71,89c0,0,96-42,107-41s46,38.606,104,114.303
		C538,470.606,573,433,584,432s107,41,107,41c18-44,71-89,71-89l161,42L721.667,252.333z"/>
</g>
</svg>
