<?xml version="1.0" encoding="utf-8"?>
<!-- Generator: Adobe Illustrator 17.0.0, SVG Export Plug-In . SVG Version: 6.00 Build 0)  -->
<!DOCTYPE svg PUBLIC "-//W3C//DTD SVG 1.1//EN" "http://www.w3.org/Graphics/SVG/1.1/DTD/svg11.dtd">
<svg version="1.1" id="Layer_1" xmlns="http://www.w3.org/2000/svg" xmlns:xlink="http://www.w3.org/1999/xlink" x="0px" y="0px"
	 width="960px" height="600px" viewBox="0 0 960 600" enable-background="new 0 0 960 600" xml:space="preserve">
<g id="Layer_2">
	<path d="M596.115,203.449c36.5,5.949,66.492,45.051,28.992,75.051s-68.682,31.167-94.015,9.5s-19.364-77.333-19.364-77.333
		c-13,29.333-31.728,25-31.728,25s-18.667,4.333-31.667-25c0,0,6,55.667-19.333,77.333c-25.333,21.667-56.5,20.5-94-9.5
		s-7.5-69.102,29-75.051c0,0-213.755,1.551-327.878,171.551c0,0,148.878-96,200.878,69c0,0,166-99.938,243,114.031
		C557,344.062,723.059,444,723.059,444c52-165,200.937-69,200.937-69C809.874,205,596.115,203.449,596.115,203.449z"/>
</g>
</svg>
