<?xml version="1.0" encoding="utf-8"?>
<!-- Generator: Adobe Illustrator 17.0.0, SVG Export Plug-In . SVG Version: 6.00 Build 0)  -->
<!DOCTYPE svg PUBLIC "-//W3C//DTD SVG 1.1//EN" "http://www.w3.org/Graphics/SVG/1.1/DTD/svg11.dtd">
<svg version="1.1" id="Layer_1" xmlns="http://www.w3.org/2000/svg" xmlns:xlink="http://www.w3.org/1999/xlink" x="0px" y="0px"
	 width="960px" height="600px" viewBox="0 0 960 600" enable-background="new 0 0 960 600" xml:space="preserve">
<g id="Layer_2">
	<path d="M675.954,76.621c-22.827,94.818-152.178,128.766-152.178,128.766c-2.927-4.682-11.706-81.529-11.706-81.529L502.999,143
		h-23.082H457.09l-9.072-19.142c0,0-8.779,76.76-11.706,81.443c0,0-129.351-33.904-152.178-128.722
		c0,0-147.495,165.076-24.583,438.995c0,0,50.131-224.662,109.39-16.599c0,0,48.125-241.112,110.975,100.02
		c63.212-341.132,111.103-100.012,111.103-100.012c59.259-208.063,109.518,16.611,109.518,16.611
		C823.449,241.674,675.954,76.621,675.954,76.621z"/>
</g>
</svg>
