<?xml version="1.0" encoding="utf-8"?>
<!-- Generator: Adobe Illustrator 17.0.0, SVG Export Plug-In . SVG Version: 6.00 Build 0)  -->
<!DOCTYPE svg PUBLIC "-//W3C//DTD SVG 1.1//EN" "http://www.w3.org/Graphics/SVG/1.1/DTD/svg11.dtd">
<svg version="1.1" id="Layer_1" xmlns="http://www.w3.org/2000/svg" xmlns:xlink="http://www.w3.org/1999/xlink" x="0px" y="0px"
	 width="960px" height="600px" viewBox="0 0 960 600" enable-background="new 0 0 960 600" xml:space="preserve">
<g id="Layer_2">
	<path d="M731,166.819c-73,107.694-186,89.806-186,89.806l-6-60.875L511,247h-32h-32l-28-51.25l-6,60.875c0,0-113,17.888-186-89.806
		c0,0-122,35.244-197,128.244c0,0,142.5-37.031,195.5,136.969c0,0,188.5-69.244,253.5,146.863
		c65-216.106,253.5-146.863,253.5-146.863c53-174,195.5-136.969,195.5-136.969C853,202.063,731,166.819,731,166.819z"/>
</g>
</svg>
