<?xml version="1.0" encoding="utf-8"?>
<!-- Generator: Adobe Illustrator 17.0.0, SVG Export Plug-In . SVG Version: 6.00 Build 0)  -->
<!DOCTYPE svg PUBLIC "-//W3C//DTD SVG 1.1//EN" "http://www.w3.org/Graphics/SVG/1.1/DTD/svg11.dtd">
<svg version="1.1" id="Layer_1" xmlns="http://www.w3.org/2000/svg" xmlns:xlink="http://www.w3.org/1999/xlink" x="0px" y="0px"
	 width="960px" height="600px" viewBox="0 0 960 600" enable-background="new 0 0 960 600" xml:space="preserve">
<g id="Layer_2">
	<path d="M834.888,143.51c-89,96.51-297.493,132.99-297.493,132.99L518.411,171l-11.47,20.5c-5-3.5-27.94-4.5-27.94-4.5
		s-23,1-28,4.5L439.5,171l-19,105.5c0,0-208.5-36.48-297.5-132.99c0,0-148.384,244.789-22.391,451.172
		c0,0,32.998-132.6,107.995-69.603c0,0,34.498-130.493,109.495-40.498c0,0,62.316-169.492,160.901,80.996
		c98-250.487,160.843-80.996,160.843-80.996c74.996-89.995,109.436,40.498,109.436,40.498
		c74.996-62.997,107.996,69.603,107.996,69.603C983.269,388.299,834.888,143.51,834.888,143.51z"/>
</g>
</svg>
