<?xml version="1.0" encoding="utf-8"?>
<!-- Generator: Adobe Illustrator 17.0.0, SVG Export Plug-In . SVG Version: 6.00 Build 0)  -->
<!DOCTYPE svg PUBLIC "-//W3C//DTD SVG 1.1//EN" "http://www.w3.org/Graphics/SVG/1.1/DTD/svg11.dtd">
<svg version="1.1" id="Layer_1" xmlns="http://www.w3.org/2000/svg" xmlns:xlink="http://www.w3.org/1999/xlink" x="0px" y="0px"
	 width="960px" height="600px" viewBox="0 0 960 600" enable-background="new 0 0 960 600" xml:space="preserve">
<g id="Layer_2">
	<path d="M711.951,142c-12,44-27,80-93,89s-89-44-94-58s-17-84.5-17-84.5l-19,65.5H477h-12l-19-65.5c0,0-12,70.5-17,84.5
		s-28,67-94,58s-81-45-93-89c0,0-212,88-187,273c0,0,39-84,123-83s109,91,109,91s25-30,67-6s106,76,123,171
		c17-95,80.975-147,122.975-171s66.975,6,66.975,6s25-90,109-91s123,83,123,83C923.951,230,711.951,142,711.951,142z"/>
</g>
</svg>
