<?xml version="1.0" encoding="utf-8"?>
<!-- Generator: Adobe Illustrator 17.0.0, SVG Export Plug-In . SVG Version: 6.00 Build 0)  -->
<!DOCTYPE svg PUBLIC "-//W3C//DTD SVG 1.1//EN" "http://www.w3.org/Graphics/SVG/1.1/DTD/svg11.dtd">
<svg version="1.1" id="Layer_1" xmlns="http://www.w3.org/2000/svg" xmlns:xlink="http://www.w3.org/1999/xlink" x="0px" y="0px"
	 width="960px" height="600px" viewBox="0 0 960 600" enable-background="new 0 0 960 600" xml:space="preserve">
<g id="Layer_2">
	<path d="M769.707,237C763.548,111,605.366,76.889,605.366,76.889c19,11.889,22,32.611,17,50.111s-44,62-84,37
		s-35.833-87.111-35.833-87.111C490.075,97.341,480,96.55,479,96.357v-0.024c0,0,0.04,0.006,0,0.013c-0.04-0.007,0-0.013,0-0.013
		v0.024c-1,0.192-11.142,0.984-23.6-19.468c0,0,4.133,62.111-35.867,87.111s-79.017-19.5-84.017-37s-2.008-38.221,16.992-50.111
		c0,0-158.187,34.111-164.346,160.111s86.839,164,86.839,164S286,340.721,352,334.36c61.767-5.953,113.022,146.937,125.9,235.425
		L477.866,587c0.294-3.084,0.651-6.293,1.067-9.609c0.416,3.316,0.773,6.525,1.067,9.609l-0.035-17.215
		c12.878-88.488,64.134-241.377,125.901-235.425c66,6.36,77,66.64,77,66.64S775.866,363,769.707,237z"/>
</g>
</svg>
