<?xml version="1.0" encoding="utf-8"?>
<!-- Generator: Adobe Illustrator 17.0.0, SVG Export Plug-In . SVG Version: 6.00 Build 0)  -->
<!DOCTYPE svg PUBLIC "-//W3C//DTD SVG 1.1//EN" "http://www.w3.org/Graphics/SVG/1.1/DTD/svg11.dtd">
<svg version="1.1" id="Layer_1" xmlns="http://www.w3.org/2000/svg" xmlns:xlink="http://www.w3.org/1999/xlink" x="0px" y="0px"
	 width="960px" height="600px" viewBox="0 0 960 600" enable-background="new 0 0 960 600" xml:space="preserve">
<g id="Layer_2">
	<path d="M803.962,256.593c-4.5-10.5-78.229-117.593-78.229-117.593c-109.333,80.667-196.671,82-196.671,82l-21.342-88.87
		c0,0-7.351,31.536-10.018,31.536S480,156.333,480,156.333s-15,7.333-17.667,7.333s-10-31.536-10-31.536L431,221
		c0,0-87.333-1.333-196.667-82c0,0-73.727,107.093-78.227,117.593c-4.5,10.5-92.076,143.495-94.036,324.485
		c0,0,113.535-121.995,196.031-39.499c0,0,89.815-116.994,221.898,17.999c132-134.993,221.933-17.999,221.933-17.999
		c82.496-82.496,196.066,39.499,196.066,39.499C896.039,400.088,808.462,267.092,803.962,256.593z"/>
</g>
</svg>
