<?xml version="1.0" encoding="utf-8"?>
<!-- Generator: Adobe Illustrator 17.0.0, SVG Export Plug-In . SVG Version: 6.00 Build 0)  -->
<!DOCTYPE svg PUBLIC "-//W3C//DTD SVG 1.1//EN" "http://www.w3.org/Graphics/SVG/1.1/DTD/svg11.dtd">
<svg version="1.1" id="Layer_1" xmlns="http://www.w3.org/2000/svg" xmlns:xlink="http://www.w3.org/1999/xlink" x="0px" y="0px"
	 width="960px" height="600px" viewBox="0 0 960 600" enable-background="new 0 0 960 600" xml:space="preserve">
<g id="Layer_2">
	<path d="M928,246H630c-2,11-9.667,55.172-47,63.505s-62.667,8.172-67.333,4.172c-4.667-4-4.667-15.323-4.667-15.323
		c-1.667-44.667-4.333-41.313-4.333-41.313c0.333,2-8.667,34.042-8.667,34.042c-6.333-3.333-18-3.583-18-3.583
		s-11.667,0.25-18,3.583c0,0-9-32.042-8.667-34.042c0,0-2.667-3.354-4.333,41.313c0,0,0,11.323-4.667,15.323s-30,4.161-67.333-4.172
		S332,257,330,246H32c0,0,168.5,51.5,131.5,177.5c0,0,270.833-39.167,316.5,132.833c45.667-172,316.5-132.833,316.5-132.833
		C759.5,297.5,928,246,928,246z"/>
</g>
</svg>
