<?xml version="1.0" encoding="utf-8"?>
<!-- Generator: Adobe Illustrator 17.0.0, SVG Export Plug-In . SVG Version: 6.00 Build 0)  -->
<!DOCTYPE svg PUBLIC "-//W3C//DTD SVG 1.1//EN" "http://www.w3.org/Graphics/SVG/1.1/DTD/svg11.dtd">
<svg version="1.1" id="Layer_2_1_" xmlns="http://www.w3.org/2000/svg" xmlns:xlink="http://www.w3.org/1999/xlink" x="0px" y="0px"
	 width="960px" height="600px" viewBox="0 0 960 600" enable-background="new 0 0 960 600" xml:space="preserve">
<g id="Layer_2_2_">
	<path d="M756.176,287c-102-86-240.678-83.551-240.678-83.551c82.667,44.449,85.144,55.051,85.144,55.051
		c-15.5,17.5-71.046,17-71.046,17s-10.592-25-14.092-38.5s-21.684-34-21.684-34v31h-14h-14v-31c0,0-18,20.5-21.5,34
		s-14,38.5-14,38.5s-55.5,0.5-71-17c0,0,2.5-10.602,85.167-55.051c0,0-138.667-2.449-240.667,83.551S49.186,540,49.186,540
		s61.133-58,172.633-100.5c0,0,9.5-3.5,14.5-3s32.5,21.5,53,68.5c0,0,127.167-97.703,190.5,63.482
		C543.82,407.297,670.503,505,670.503,505c20.5-47,48.183-68,53.183-68.5s14.499,3,14.499,3C849.685,482,910.814,540,910.814,540
		S858.176,373,756.176,287z"/>
</g>
</svg>
