<?xml version="1.0" encoding="utf-8"?>
<!-- Generator: Adobe Illustrator 17.0.0, SVG Export Plug-In . SVG Version: 6.00 Build 0)  -->
<!DOCTYPE svg PUBLIC "-//W3C//DTD SVG 1.1//EN" "http://www.w3.org/Graphics/SVG/1.1/DTD/svg11.dtd">
<svg version="1.1" id="Layer_1" xmlns="http://www.w3.org/2000/svg" xmlns:xlink="http://www.w3.org/1999/xlink" x="0px" y="0px"
	 width="960px" height="600px" viewBox="0 0 960 600" enable-background="new 0 0 960 600" xml:space="preserve">
<g id="Layer_2">
	<path d="M668.134,114c79,70,50.491,123-7.009,124.5S571.107,226,543.607,193s-14.536-83.612-14.536-83.612
		C499.571,152.776,480,145.5,480,145.5s-19.5,7.276-49-36.112c0,0,13,50.612-14.5,83.612s-60,47-117.5,45.5S213,184,292,114
		c0,0-178.714,77-254.857,289c0,0,142.857-150,234.857,50c0,0,128-128.745,208,141.628C560,324.255,688.069,453,688.069,453
		c92-200,234.926-50,234.926-50C846.853,191,668.134,114,668.134,114z"/>
</g>
</svg>
