<?xml version="1.0" encoding="utf-8"?>
<!-- Generator: Adobe Illustrator 17.0.0, SVG Export Plug-In . SVG Version: 6.00 Build 0)  -->
<!DOCTYPE svg PUBLIC "-//W3C//DTD SVG 1.1//EN" "http://www.w3.org/Graphics/SVG/1.1/DTD/svg11.dtd">
<svg version="1.1" id="Layer_2" xmlns="http://www.w3.org/2000/svg" xmlns:xlink="http://www.w3.org/1999/xlink" x="0px" y="0px"
	 width="960px" height="600px" viewBox="0 0 960 600" enable-background="new 0 0 960 600" xml:space="preserve">
<polygon fill="#020202" points="831,251 757,180.5 700.5,150 691.5,177.5 662.5,196 550,223 550,181.5 529,206 478,206 427,206 
	406,181.5 406,223 293.5,196 264.5,177.5 255.5,150 199,180.5 125,251 24,446 24,508 87,467 171,447 188,464 206,441 286,434 
	478,573 670,434 750,441 768,464 785,447 869,467 932,508 932,446 "/>
</svg>
