<?xml version="1.0" encoding="utf-8"?>
<!-- Generator: Adobe Illustrator 17.0.0, SVG Export Plug-In . SVG Version: 6.00 Build 0)  -->
<!DOCTYPE svg PUBLIC "-//W3C//DTD SVG 1.1//EN" "http://www.w3.org/Graphics/SVG/1.1/DTD/svg11.dtd">
<svg version="1.1" id="Layer_1" xmlns="http://www.w3.org/2000/svg" xmlns:xlink="http://www.w3.org/1999/xlink" x="0px" y="0px"
	 width="960px" height="600px" viewBox="0 0 960 600" enable-background="new 0 0 960 600" xml:space="preserve">
<g id="Layer_2">
	<path d="M951.795,276.092c-22.084-148.699-131.987-190.49-131.987-190.49c-3,19.499-47.985,113.994-146.981,101.995
		S563.357,72.102,563.357,72.102C539.358,129.099,482,127.599,482,127.599s-57.407,1.5-81.406-55.497
		c0,0-10.499,103.495-109.495,115.494S147.107,105.1,144.107,85.601c0,0-109.909,41.792-131.993,190.49
		c-22.499,151.492,52.497,185.991,52.497,185.991s-3-77.996,68.997-80.996c71.996-3,107.995,68.997,118.494,94.495
		c0,0,104.995-64.497,158.992-11.999C467.34,518.266,482,600,482,600s14.612-81.734,70.858-136.418
		c53.997-52.497,158.944,11.999,158.944,11.999c10.499-25.499,46.498-97.495,118.495-94.495c71.996,3,68.998,80.996,68.998,80.996
		S974.294,427.584,951.795,276.092z"/>
</g>
</svg>
