<?xml version="1.0" encoding="utf-8"?>
<!-- Generator: Adobe Illustrator 17.0.0, SVG Export Plug-In . SVG Version: 6.00 Build 0)  -->
<!DOCTYPE svg PUBLIC "-//W3C//DTD SVG 1.1//EN" "http://www.w3.org/Graphics/SVG/1.1/DTD/svg11.dtd">
<svg version="1.1" id="Layer_1" xmlns="http://www.w3.org/2000/svg" xmlns:xlink="http://www.w3.org/1999/xlink" x="0px" y="0px"
	 width="960px" height="600px" viewBox="0 0 960 600" enable-background="new 0 0 960 600" xml:space="preserve">
<g id="Layer_2">
	<path d="M686.303,146.416c-66.26,39.363-131.197,72.165-139.069,74.789c-7.873,2.624-7.849,0-7.849,0
		c13.121-97.095,0.047-110.871,0.047-110.871c-1.968,19.085-16.962,74.461-16.962,74.461
		c-16.729-19.681-41.141-22.634-41.141-22.634s-24.602,2.952-41.331,22.634c0,0-15.089-55.376-17.057-74.461
		c0,0-13.121,13.777,0,110.871c0,0,0,2.624-7.873,0s-72.821-35.426-139.081-74.789c0,0-199.001,163.935-268.374,380.911
		c0,0,81.073-64.871,123.388,0c0,0,100.375-92.58,148.594,14.683c0,0,124.976-114.152,201.734,31.49
		c76.757-145.642,201.545-31.49,201.545-31.49c48.219-107.263,148.406-14.683,148.406-14.683c42.315-64.871,123.391,0,123.391,0
		C885.298,310.351,686.303,146.416,686.303,146.416z"/>
</g>
<g id="Layer_3">
	<path fill="#FFFFFF" d="M443,262l44,24l43-29c0,0,3.333,16.667-8.667,35.333c-12,18.667-15,18.667-15,18.667H468
		c0,0-9.667-4.667-17-18.667S443,262,443,262z"/>
	<path fill="#FFFFFF" d="M487,282v-18h5c0,0,2.167,8.667,9,9.667L487,282z"/>
	<path fill="#FFFFFF" d="M498.167,260.5c0,0,19.333-9.833,20.167-10.667c0.833-0.833-8.5,9.833-11.333,10.667
		S498.167,260.5,498.167,260.5z"/>
	<path fill="#FFFFFF" d="M453.333,249.787c0,0,17.5,9.287,22.333,11.083c0,0-7.667,0.796-11.167-1.87
		S453.333,249.787,453.333,249.787z"/>
	<path fill="#515151" d="M439.999,184.794c0,0,1.501,29.206,12.001,33.206s13.285-11.5,31.143-11.5
		c17.857,0,14.41,10.953,29.134,10.976C527,217.5,522.47,184.794,522.47,184.794S485.998,133.589,439.999,184.794z"/>
	<path fill="none" stroke="#FFFFFF" stroke-width="4" stroke-linecap="round" stroke-miterlimit="10" d="M684.08,171.097
		c0,0-13.499,274.486-7.5,344.983"/>
	<path fill="none" stroke="#FFFFFF" stroke-width="4" stroke-linecap="round" stroke-miterlimit="10" d="M279.1,171.097
		c0,0,19.499,269.987,0,344.983"/>
	<path fill="none" stroke="#FFFFFF" stroke-width="4" stroke-linecap="round" stroke-miterlimit="10" d="M261.101,178.597
		c0,0-131.993,140.993-127.494,326.984"/>
	<path fill="none" stroke="#FFFFFF" stroke-width="4" stroke-linecap="round" stroke-miterlimit="10" d="M700.579,178.597
		c0,0,152.992,184.491,128.994,326.984"/>
	<path fill="none" stroke="#FFFFFF" stroke-width="4" stroke-linecap="round" stroke-miterlimit="10" d="M298.6,178.597
		c0,0,138.476,104.995,154.734,203.99"/>
	<path fill="none" stroke="#FFFFFF" stroke-width="4" stroke-linecap="round" stroke-miterlimit="10" d="M664,178.597
		c0,0-130.143,103.995-146.4,202.99"/>
</g>
<g id="Layer_4">
	<g>
		<path d="M532.062,269.803c0,0-0.092,0.082-0.238,0.241c-0.148,0.154-0.365,0.38-0.642,0.667c-0.265,0.303-0.602,0.628-0.959,1.037
			c-0.357,0.394-0.761,0.839-1.201,1.324c-0.219,0.238-0.428,0.508-0.654,0.772c-0.236,0.252-0.475,0.518-0.699,0.812
			c-0.226,0.292-0.472,0.576-0.727,0.861c-0.23,0.31-0.491,0.602-0.745,0.91c-0.551,0.578-1.05,1.241-1.636,1.861
			c-0.539,0.655-1.05,1.356-1.555,2.065c-0.441,0.747-0.938,1.47-1.336,2.235c-0.379,0.773-0.817,1.509-1.159,2.261
			c-0.334,0.76-0.658,1.494-0.964,2.191c-0.279,0.709-0.512,1.394-0.746,2.023c-0.236,0.628-0.442,1.21-0.574,1.739
			c-0.152,0.526-0.284,0.984-0.392,1.362c-0.224,0.758-0.353,1.191-0.353,1.191l-0.003,0.01c-0.023,0.079-0.107,0.125-0.186,0.101
			c-0.07-0.021-0.114-0.089-0.107-0.159c0,0,0.046-0.451,0.127-1.241c0.044-0.396,0.097-0.878,0.158-1.43
			c0.048-0.556,0.161-1.173,0.297-1.845c0.133-0.673,0.259-1.409,0.429-2.182c0.214-0.763,0.439-1.568,0.672-2.4
			c0.25-0.83,0.587-1.664,0.907-2.522c0.33-0.854,0.766-1.681,1.152-2.534c0.42-0.836,0.881-1.657,1.329-2.475
			c0.498-0.785,0.954-1.594,1.548-2.263c0.297-0.333,0.573-0.675,0.878-0.978c0.314-0.295,0.625-0.58,0.942-0.841
			c0.608-0.547,1.266-0.977,1.86-1.369c0.615-0.373,1.191-0.686,1.73-0.916c0.527-0.245,1.02-0.166,1.417-0.291
			c0.814-0.229,1.307-0.022,1.307-0.022h0.01c0.087,0,0.161-0.174,0.166-0.087C532.117,269.962,532.096,269.773,532.062,269.803z"/>
	</g>
	<g>
		<path d="M439.234,272.887c0,0,0.095-0.14,0.301-0.37c0.208-0.23,0.54-0.55,1.041-0.868c0.498-0.321,1.172-0.637,2.018-0.814
			c0.841-0.171,1.858-0.193,2.903,0.052c1.045,0.234,2.128,0.691,3.106,1.353c0.984,0.647,1.929,1.458,2.727,2.398
			c0.82,0.934,1.502,1.993,2.142,3.083c0.3,0.551,0.603,1.106,0.907,1.664l0.835,1.699c0.524,1.143,1.038,2.286,1.479,3.432
			c0.476,1.133,0.847,2.279,1.25,3.371c0.349,1.109,0.734,2.164,1.011,3.191c0.28,1.026,0.573,1.985,0.792,2.885
			c0.459,1.794,0.831,3.286,1.041,4.344c0.228,1.052,0.358,1.654,0.358,1.654c0.018,0.081-0.034,0.161-0.115,0.179
			c-0.074,0.016-0.149-0.029-0.174-0.099c0,0-0.21-0.577-0.578-1.587c-0.362-1.011-0.881-2.452-1.548-4.162
			c-0.319-0.86-0.719-1.77-1.112-2.742c-0.411-0.962-0.845-1.977-1.293-3.026c-0.491-1.027-0.954-2.11-1.513-3.159
			c-0.528-1.067-1.12-2.114-1.716-3.153l-0.953-1.512c-0.341-0.48-0.68-0.958-1.017-1.433c-0.718-0.905-1.421-1.783-2.139-2.562
			c-0.685-0.821-1.416-1.493-2.101-2.126c-0.179-0.147-0.355-0.291-0.528-0.434c-0.182-0.124-0.361-0.247-0.537-0.367
			c-0.352-0.234-0.703-0.455-1.058-0.606c-0.704-0.326-1.395-0.524-2.042-0.587c-0.646-0.072-1.241-0.023-1.735,0.059
			c-0.994,0.182-1.552,0.469-1.552,0.469c-0.076,0.039-0.169,0.009-0.208-0.067C439.197,272.994,439.204,272.933,439.234,272.887z"
			/>
	</g>
	<polyline fill="none" stroke="#000000" stroke-width="2" stroke-linecap="round" stroke-miterlimit="10" points="471.333,293.917 
		473.333,292 501,292 502.667,295.125 	"/>
	<g>
		<path d="M506.167,300.333c-0.826,0.992-1.797,1.912-3.116,2.433c-0.325,0.102-0.743,0.187-1.058,0.217l-0.963,0.067l-1.925,0.127
			c-2.567,0.141-5.134,0.23-7.702,0.282c-2.567,0.036-5.134,0.049-7.702,0.006c-2.567-0.039-5.134-0.124-7.702-0.259l-0.243-0.013
			l-0.132-0.095c-1.137-0.817-2.227-1.663-3.261-2.599c-0.524-0.454-1.018-0.954-1.496-1.458l-0.67-0.808
			c-0.11-0.134-0.185-0.304-0.276-0.451l-0.256-0.449l0.359,0.374c0.123,0.119,0.222,0.251,0.361,0.353l0.801,0.628
			c0.567,0.381,1.108,0.78,1.693,1.133l1.735,1.068l1.76,1.011L476,301.793c2.567-0.136,5.134-0.221,7.702-0.259
			c2.567-0.043,5.134-0.03,7.702,0.006c2.567,0.053,5.134,0.142,7.702,0.282l1.925,0.127l0.963,0.067
			c0.324,0.021,0.55,0.004,0.846-0.026c0.564-0.125,1.151-0.338,1.704-0.64C505.096,301.052,505.652,300.724,506.167,300.333z"/>
	</g>
</g>
</svg>
