<?xml version="1.0" encoding="utf-8"?>
<!-- Generator: Adobe Illustrator 17.0.0, SVG Export Plug-In . SVG Version: 6.00 Build 0)  -->
<!DOCTYPE svg PUBLIC "-//W3C//DTD SVG 1.1//EN" "http://www.w3.org/Graphics/SVG/1.1/DTD/svg11.dtd">
<svg version="1.1" id="Layer_1" xmlns="http://www.w3.org/2000/svg" xmlns:xlink="http://www.w3.org/1999/xlink" x="0px" y="0px"
	 width="960px" height="600px" viewBox="0 0 960 600" enable-background="new 0 0 960 600" xml:space="preserve">
<g id="Layer_2">
	<path d="M649.114,91.333c61.333,22,37.333,93.333-22,104C567.78,206,535.78,202,535.78,202l-18.667-93.5l-10,30.5H481h-26l-10-30.5
		L426.333,202c0,0-32,4-91.333-6.667s-83.333-82-22-104c0,0-293.387,88.263-294.886,376.249c0,0,200.99-169.492,223.489,82.496
		c0,0,136.812-212.989,239.398,41.998c103-254.987,239.454-41.998,239.454-41.998C742.953,298.091,944,467.582,944,467.582
		C942.5,179.597,649.114,91.333,649.114,91.333z"/>
</g>
</svg>
