<?xml version="1.0" encoding="utf-8"?>
<!-- Generator: Adobe Illustrator 17.0.0, SVG Export Plug-In . SVG Version: 6.00 Build 0)  -->
<!DOCTYPE svg PUBLIC "-//W3C//DTD SVG 1.1//EN" "http://www.w3.org/Graphics/SVG/1.1/DTD/svg11.dtd">
<svg version="1.1" id="Layer_1" xmlns="http://www.w3.org/2000/svg" xmlns:xlink="http://www.w3.org/1999/xlink" x="0px" y="0px"
	 width="960px" height="600px" viewBox="0 0 960 600" enable-background="new 0 0 960 600" xml:space="preserve">
<g id="Layer_2">
	<path d="M782.894,103.6c-118.494,47.998-245.228,19.775-245.228,19.775l-26-97.458L502,62h-22h-22l-9.667-36.083l-26,97.458
		c0,0-126.734,28.223-245.228-19.775C177.106,103.6,35,307,25,591c0,0,188-126,455-126s455,126,455,126
		C925,307,782.894,103.6,782.894,103.6z"/>
</g>
<g id="Layer_3">
	<polygon fill="#FFFFFF" points="448.333,84 472.333,95.333 462,102.667 	"/>
	<polygon fill="#FFFFFF" points="512.333,84 488.333,95.333 498.667,102.667 	"/>
</g>
</svg>
