<?xml version="1.0" encoding="utf-8"?>
<!-- Generator: Adobe Illustrator 17.0.0, SVG Export Plug-In . SVG Version: 6.00 Build 0)  -->
<!DOCTYPE svg PUBLIC "-//W3C//DTD SVG 1.1//EN" "http://www.w3.org/Graphics/SVG/1.1/DTD/svg11.dtd">
<svg version="1.1" id="Layer_1" xmlns="http://www.w3.org/2000/svg" xmlns:xlink="http://www.w3.org/1999/xlink" x="0px" y="0px"
	 width="960px" height="600px" viewBox="0 0 960 600" enable-background="new 0 0 960 600" xml:space="preserve">
<g id="Layer_2">
	<path d="M830.095,238.594C743.099,94.601,597.708,64.576,597.708,64.576c70,68.076,88.509,146.924,17.509,161.424
		s-89.814-31-89.814-31L508.107,64.576l-10.591,55.09C490.849,107,479,103,479,103s-12,4-18.667,16.667l-10.667-55.09L432.333,195
		c0,0-18.833,45.5-89.833,31S290,132.652,360,64.576c0,0-145.396,30.025-232.392,174.017S219,503,219,503s-72.667-86-60-120.667
		s56.667-46.667,70-37.333c13.333,9.333,29.333,16,35.333,81.333c0,0,38.667-44.333,73.667-42.333s57,44,59,75s-7,44-7,44
		s49-17,69,7s20,51,20,81c0-30-0.151-57,19.849-81s68.849-7,68.849-7s-9-13-7-44s24-73,59-75s73.667,42.333,73.667,42.333
		c6-65.333,22-72,35.334-81.333c13.333-9.333,57.334,2.667,70.001,37.333C811.366,417,738.701,503,738.701,503
		S917.09,382.586,830.095,238.594z"/>
</g>
</svg>
