<?xml version="1.0" encoding="utf-8"?>
<!-- Generator: Adobe Illustrator 17.0.0, SVG Export Plug-In . SVG Version: 6.00 Build 0)  -->
<!DOCTYPE svg PUBLIC "-//W3C//DTD SVG 1.1//EN" "http://www.w3.org/Graphics/SVG/1.1/DTD/svg11.dtd">
<svg version="1.1" id="Layer_1" xmlns="http://www.w3.org/2000/svg" xmlns:xlink="http://www.w3.org/1999/xlink" x="0px" y="0px"
	 width="960px" height="600px" viewBox="0 0 960 600" enable-background="new 0 0 960 600" xml:space="preserve">
<g id="Layer_2">
	<path d="M753,172.333c2,8.667-6.667,27.333-14.667,32S551,292.333,545,291s-27-44-27-44c-4,23-35,24-35,24s-31-1-35-24
		c0,0-21,42.667-27,44s-185.333-82-193.333-86.667S211,181,213,172.333C213,172.333,97,196,10,370c0,0,26-26,52-15s94,45,99,56
		s7,38,7,38s27-25,47-21s94,44,102,54s8,33,8,39c0,0,22-29,42-25s90,42,99,52s17,18,17,31c0-13,8-21,17-31s79-48,99-52s42,25,42,25
		c0-6,0-29,8-39s82-50,102-54s47,21,47,21s2-27,7-38s73-45,99-56s52,15,52,15C869,196,753,172.333,753,172.333z"/>
</g>
</svg>
